<svg fill="none" height="78" viewBox="0 0 102 78" width="102" xmlns="http://www.w3.org/2000/svg"><path d="m102 33.7415h-37.1011v-9.514h37.1011z" fill="#e669a2"/><path d="m97.181 33.7416h-32.2821v-23.79531h32.2821z" fill="#f3be26"/><path d="m83.8437 33.7419h-18.9448v-33.3044h18.9448z" fill="#ee9c34"/><path d="m87.5709 33.7414h-22.672v-29.58808h22.672z" fill="#f3bc87"/><path d="m64.8936 4.15918v29.57952h18.9479v-29.57952z" fill="#e3721c"/><path d="m45.9019 33.7422h18.9972v4.7575h-18.9972z" fill="#ad1b02"/><path d="m64.8936 9.94141v23.79759h22.688v-23.79759z" fill="#e88d14"/><path d="m64.8936 9.94141v23.79759h18.9479v-23.79759z" fill="#d85604"/><path d="m76.7461 33.7413h-11.8472v-14.2823h11.8472z" fill="#c14303"/><path d="m64.8936 24.2344v9.5041h32.2982v-9.5041z" fill="#db4e18"/><path d="m64.8936 24.2344v9.5041h22.688v-9.5041z" fill="#d1390d"/><path d="m64.8936 24.2344v9.5041h18.9479v-9.5041z" fill="#c22303"/><path d="m64.8936 24.2344v9.5041h11.8641v-9.5041z" fill="#ad1b02"/><g fill="#000"><path d="m69.0295 51.6609c-3.2324.5757-4.9563 3.0226-4.9563 7.2685 0 4.318 2.2986 7.1966 5.6746 7.1966 1.6521 0 3.0888-.5757 6.1057-2.087v3.5263c-3.6634 1.7272-5.8183 2.159-8.6916 2.159-3.2324 0-5.531-.7917-7.3267-2.7347-1.8677-1.8711-2.8733-4.318-2.8733-7.1246 0-6.1171 4.5972-10.363 11.2775-10.363 4.3817 0 7.4704 2.087 7.4704 5.0375 0 1.9431-1.4366 3.3105-3.5197 3.3105-1.0775 0-1.9395-.3599-3.1606-1.0076"/><path d="m52.8676 59.865c2.9451-3.6703 4.0226-5.1815 4.0226-6.9807 0-1.7991-1.4366-3.3823-3.4479-3.3823-1.1493 0-2.2268.6476-2.7296 1.2234v7.5563c-4.8127 6.4769-4.8127 6.4769-4.8127 6.4769 0-14.6809 0-14.6809 0-14.6809-4.5971 0-4.5971 0-4.5971 0-7.6141 12.5939-7.6141 12.5939-7.6141 12.5939 0-12.5939 0-12.5939 0-12.5939-2.5859 0-2.5859 0-2.5859 0-6.9676 1.5832-6.9676 1.5832-6.9676 1.5832v1.7992c3.807.3598 3.807.3598 3.807.3598v15.6165h4.8127c7.3267-12.0902 7.3267-12.0902 7.3267-12.0902v12.0902h5.3874"/><path d="m9.55352 66.9882h1.07748c3.8789 0 6.0338-2.3748 6.0338-7.1246 0-3.9581-1.724-6.117-4.9564-6.117-.4309 0-1.0774.0719-2.15488.2878zm0 8.492c3.16058.7196 3.16058.7196 3.16058.7196v1.7992c-12.426777 0-12.426775 0-12.426775 0 0-1.7992 0-1.7992 0-1.7992 2.873235-.7196 2.873235-.7196 2.873235-.7196 0-21.7336 0-21.7336 0-21.7336-3.16056039 0-3.16056 0-3.16056 0 0-1.7992 0-1.7992 0-1.7992 7.54225-2.3029 7.54225-2.3029 7.54225-2.3029h2.01127v2.5908c3.51968-2.159 4.74088-2.5188 6.60848-2.5188 4.1662 0 7.3267 3.8861 7.3267 9.2836 0 6.189-4.238 10.435-10.7028 10.435-.7183 0-1.9394-.072-3.23238-.144"/></g></svg>